<svg width="699" height="393" viewBox="0 0 699 393" fill="none" xmlns="http://www.w3.org/2000/svg">
<g id="Group 22">
<path id="Path 3" fill-rule="evenodd" clip-rule="evenodd" d="M357.361 437.675C433.064 461.368 510.904 500.887 590.596 428.705C670.289 356.523 720.39 293.291 688.036 211.478C655.682 129.664 523.614 180.623 485.242 107.501C446.869 34.3795 531.183 -31.9845 494.833 -97.0624C458.484 -162.14 430.534 -203.849 313.718 -162.471C196.902 -121.092 207.673 -15.8066 118.84 45.8473C30.0071 107.501 -66.1041 199.8 65.7937 364.494C197.691 529.188 281.659 413.981 357.361 437.675Z" stroke="#E4E4E4"/>
<path id="Path 3 Copy" fill-rule="evenodd" clip-rule="evenodd" d="M347.895 399.751C409.478 418.991 472.8 451.081 537.629 392.468C602.457 333.854 643.214 282.509 616.895 216.075C590.575 149.641 483.14 191.02 451.924 131.644C420.708 72.2681 489.296 18.3793 459.726 -34.4651C430.157 -87.3096 407.42 -121.178 312.392 -87.5779C217.364 -53.9777 226.125 31.5161 153.861 81.5802C81.5969 131.644 3.41175 206.592 110.709 340.327C218.006 474.062 286.312 380.511 347.895 399.751Z" stroke="#E4E4E4"/>
<path id="Path 3 Copy 2" fill-rule="evenodd" clip-rule="evenodd" d="M330.188 374.583C380.15 390.281 431.522 416.465 484.117 368.64C536.711 320.815 569.777 278.92 548.424 224.714C527.071 170.508 439.91 204.271 414.586 155.824C389.261 107.376 444.905 63.4063 420.916 20.2884C396.926 -22.8295 378.48 -50.4642 301.385 -23.0484C224.29 4.36729 231.398 74.1251 172.771 114.974C114.144 155.824 50.7132 216.977 137.762 326.096C224.811 435.215 280.227 358.884 330.188 374.583Z" stroke="#E4E4E4"/>
<path id="Path 3 Copy 5" fill-rule="evenodd" clip-rule="evenodd" d="M311.684 343.816C351.979 356.412 393.412 377.419 435.831 339.048C478.25 300.677 504.918 267.064 487.696 223.573C470.475 180.082 400.178 207.171 379.753 168.3C359.328 129.43 404.206 94.1516 384.858 59.557C365.51 24.9624 350.633 2.79038 288.454 24.7867C226.275 46.783 232.008 102.752 184.724 135.526C137.44 168.3 86.2818 217.365 156.488 304.914C226.695 392.464 271.389 331.221 311.684 343.816Z" stroke="#E4E4E4"/>
<path id="Path 3 Copy 4" fill-rule="evenodd" clip-rule="evenodd" d="M306.917 323.954C339.827 334.249 373.666 351.421 408.31 320.057C442.953 288.692 464.734 261.217 450.668 225.668C436.603 190.119 379.191 212.261 362.51 180.489C345.828 148.717 382.481 119.88 366.679 91.6031C350.877 63.3258 338.727 45.2026 287.945 63.1822C237.163 81.1618 241.845 126.91 203.227 153.699C164.61 180.489 122.829 220.594 180.167 292.156C237.506 363.718 274.008 313.659 306.917 323.954Z" stroke="#E4E4E4"/>
<path id="Path 3 Copy 3" fill-rule="evenodd" clip-rule="evenodd" d="M297.775 309.594C324.493 317.954 351.966 331.899 380.093 306.429C408.22 280.959 425.903 258.648 414.483 229.78C403.064 200.912 356.452 218.893 342.909 193.092C329.365 167.291 359.123 143.875 346.294 120.912C333.465 97.949 323.6 83.2319 282.371 97.8324C241.142 112.433 244.943 149.583 213.591 171.337C182.238 193.092 148.316 225.66 194.868 283.772C241.421 341.884 271.056 301.234 297.775 309.594Z" stroke="#E4E4E4"/>
</g>
</svg>
