<svg width="665" height="250" viewBox="0 0 665 250" fill="none" xmlns="http://www.w3.org/2000/svg">
<g id="Group 10">
<path id="Path 3" fill-rule="evenodd" clip-rule="evenodd" d="M374.872 -56.4869C291.784 -82.5171 206.349 -125.933 118.882 -46.6328C31.415 32.6677 -23.5749 102.135 11.936 192.016C47.4468 281.897 192.399 225.914 234.515 306.246C276.632 386.578 184.092 459.487 223.988 530.982C263.884 602.478 294.561 648.3 422.773 602.841C550.985 557.382 539.164 441.714 636.664 373.98C734.163 306.246 839.651 204.846 694.885 23.9105C550.119 -157.025 457.96 -30.4567 374.872 -56.4869Z" stroke="#9E96C6"/>
<path id="Path 3 Copy" fill-rule="evenodd" clip-rule="evenodd" d="M384.985 -15.1612C317.428 -36.2993 247.963 -71.556 176.846 -7.15906C105.73 57.2379 61.0189 113.649 89.8917 186.638C118.765 259.628 236.621 214.165 270.865 279.4C305.108 344.635 229.867 403.841 262.305 461.9C294.744 519.959 319.686 557.169 423.932 520.254C528.178 483.338 518.566 389.408 597.84 334.404C677.114 279.4 762.883 197.057 645.178 50.1265C527.473 -96.804 452.541 5.97694 384.985 -15.1612Z" stroke="#9E96C6"/>
<path id="Path 3 Copy 2" fill-rule="evenodd" clip-rule="evenodd" d="M404.804 13.5094C349.955 -3.72242 293.557 -32.4636 235.817 20.0327C178.078 72.529 141.777 118.515 165.219 178.016C188.661 237.517 284.348 200.456 312.151 253.636C339.953 306.815 278.865 355.08 305.201 402.409C331.538 449.738 351.788 480.072 436.425 449.979C521.062 419.885 513.259 343.314 577.621 298.475C641.983 253.636 711.619 186.509 616.055 66.7318C520.49 -53.0458 459.653 30.7411 404.804 13.5094Z" stroke="#9E96C6"/>
<path id="Path 3 Copy 5" fill-rule="evenodd" clip-rule="evenodd" d="M424.91 46.8772C380.705 33.0407 335.251 9.96248 288.716 52.1152C242.182 94.268 212.926 131.194 231.818 178.971C250.711 226.748 327.829 196.989 350.236 239.69C372.643 282.392 323.41 321.147 344.636 359.15C365.861 397.154 382.182 421.511 450.394 397.347C518.607 373.183 512.317 311.699 564.19 275.695C616.062 239.69 672.184 185.79 595.165 89.613C518.146 -6.56428 469.115 60.7138 424.91 46.8772Z" stroke="#9E96C6"/>
<path id="Path 3 Copy 4" fill-rule="evenodd" clip-rule="evenodd" d="M430.256 68.4405C394.196 57.123 357.119 38.2464 319.159 72.7249C281.2 107.203 257.335 137.406 272.746 176.485C288.157 215.564 351.065 191.223 369.343 226.15C387.621 261.078 347.46 292.777 364.774 323.862C382.088 354.947 395.402 374.869 451.044 355.105C506.686 335.34 501.556 285.049 543.87 255.6C586.183 226.15 631.963 182.063 569.137 103.396C506.311 24.7284 466.315 79.7579 430.256 68.4405Z" stroke="#9E96C6"/>
<path id="Path 3 Copy 3" fill-rule="evenodd" clip-rule="evenodd" d="M440.955 84.5018C411.63 75.3383 381.476 60.0543 350.605 87.9708C319.735 115.887 300.327 140.342 312.86 171.983C325.393 203.624 376.553 183.916 391.417 212.196C406.282 240.476 373.621 266.142 387.702 291.311C401.783 316.48 412.61 332.61 457.861 316.607C503.112 300.604 498.94 259.885 533.352 236.041C567.763 212.196 604.994 176.5 553.901 112.804C502.807 49.1091 470.28 93.6653 440.955 84.5018Z" stroke="#9E96C6"/>
</g>
</svg>
